# xmcd
#
# Track frame offsets:
#	150
#	10710
#	26897
#	41732
#	67505
#	89527
#	115620
#	136807
#	177035
#	195570
#	214662
#	237297
#
# Disc length: 3445 seconds
#
# Revision: 1
# Processed by: cddbd v1.5.1PL0 Copyright (c) Steve Scherf et al.
# Submitted via: CDex 1.50Beta5
#
DISCID=930d730c
DTITLE=kyo - Happy??Junky!!
DYEAR=1999
DGENRE=Rock
TTITLE0=f.t.j.p
TTITLE1=LA Di DA
TTITLE2=gumi
TTITLE3=round’n’ round’n’ Merry go Round
TTITLE4=夜の向こう側
TTITLE5=ドライフラワー
TTITLE6=GIMME
TTITLE7=Junkydance
TTITLE8=fly high
TTITLE9=ムネに空いたアナ
TTITLE10=Wonderful Days,Wonderful Life.
TTITLE11=彼方へ
EXTD=
EXTT0=
EXTT1=
EXTT2=
EXTT3=
EXTT4=
EXTT5=
EXTT6=
EXTT7=
EXTT8=
EXTT9=
EXTT10=
EXTT11=
PLAYORDER=
